# xmcd CD database file
#
# Track frame offsets:
#	150
#	15767
#	31241
#	49761
#	73871
#	91049
#	105238
#	123479
#	143568
#	168895
#	181743
#	200941
#
# Disc length: 2867 seconds
#
# Revision: 0
# Processed by: cddbd v1.5.2PL0 Copyright (c) Steve Scherf et al.
# Submitted via: CDex 1.70beta2
#
DISCID=900b310c
DTITLE=伍伍慧 - My BlueBird
DYEAR=2016
DGENRE=New Age
TTITLE0=Begin to beat
TTITLE1=君とearly summer
TTITLE2=Bluebird
TTITLE3=Tears
TTITLE4=Destination
TTITLE5=I got rhythm (George Gershwin)
TTITLE6=You are my rainbow
TTITLE7=素敵なヒミツ
TTITLE8=魔法がとけるその前に
TTITLE9=Can’t buy me love (Lennon-McCartony)
TTITLE10=Romantica
TTITLE11=Sweet home
EXTD=YEAR: 2016
EXTT0=
EXTT1=
EXTT2=
EXTT3=
EXTT4=
EXTT5=
EXTT6=
EXTT7=
EXTT8=
EXTT9=
EXTT10=
EXTT11=
PLAYORDER=
